<svg data-v-423bf9ae="" xmlns="http://www.w3.org/2000/svg" viewBox="0 0 561 93" class="iconLeft"><!----><!----><!----><g data-v-423bf9ae="" id="8cf70366-57c0-4771-9326-3827858565fa" fill="#000000" transform="matrix(4.608294768854844,0,0,4.608294768854844,119.59183292944945,16.09018898010254)"><path d="M13.11 2.38L10.41 11.01L7.86 2.38L6.28 2.38L3.76 10.99L1.09 2.38L-0.11 2.38L3.19 12.88L4.38 12.88L7.07 3.57L9.82 12.88L10.99 12.88L14.26 2.38ZM18.59 13.02C20.60 13.02 22.23 11.39 22.23 9.38C22.23 7.37 20.60 5.74 18.59 5.74C16.57 5.74 14.95 7.37 14.95 9.38C14.95 11.39 16.57 13.02 18.59 13.02ZM18.59 11.94C17.17 11.94 16.03 10.80 16.03 9.38C16.03 7.96 17.17 6.83 18.59 6.83C19.98 6.83 21.14 7.96 21.14 9.38C21.14 10.80 19.98 11.94 18.59 11.94ZM30.99 5.74C30.15 5.74 29.42 6.14 28.95 6.79C28.47 6.14 27.74 5.74 27.00 5.74C26.37 5.74 25.80 6.05 25.38 6.53L25.38 5.88L24.29 5.88L24.29 12.88L25.38 12.88L25.38 8.40C25.38 7.53 26.04 6.83 26.90 6.83C27.72 6.83 28.40 7.53 28.40 8.40L28.40 12.88L29.49 12.88L29.49 8.40C29.49 7.53 30.17 6.83 30.99 6.83C31.83 6.83 32.52 7.53 32.52 8.40L32.52 12.88L33.60 12.88L33.60 8.40C33.60 6.93 32.45 5.74 30.99 5.74ZM39.69 5.74C38.69 5.74 37.80 6.14 37.14 6.79L37.14 0L36.05 0L36.05 12.88L37.14 12.88L37.14 11.97C37.80 12.62 38.69 13.02 39.69 13.02C41.70 13.02 43.33 11.39 43.33 9.38C43.33 7.37 41.70 5.74 39.69 5.74ZM39.69 11.94C38.27 11.94 37.14 10.80 37.14 9.38C37.14 7.96 38.27 6.83 39.69 6.83C41.11 6.83 42.25 7.96 42.25 9.38C42.25 10.80 41.11 11.94 39.69 11.94ZM52.90 11.97C52.52 11.97 52.19 11.71 52.19 11.06L52.19 5.88L51.10 5.88L51.10 6.79C50.45 6.14 49.54 5.74 48.55 5.74C46.53 5.74 44.91 7.37 44.91 9.38C44.91 11.39 46.53 13.02 48.55 13.02C49.60 13.02 50.54 12.53 51.21 11.81C51.43 12.53 51.99 13.02 52.82 13.02C53.01 13.02 53.20 12.97 53.34 12.88L53.34 11.97ZM48.55 11.94C47.13 11.94 45.99 10.80 45.99 9.38C45.99 7.96 47.13 6.83 48.55 6.83C49.95 6.83 51.10 7.96 51.10 9.38C51.10 10.80 49.95 11.94 48.55 11.94ZM58.05 6.93L58.05 5.88L56.18 5.88L56.18 2.83L55.09 2.83L55.09 5.88L53.92 5.88L53.92 6.93L55.09 6.93L55.09 11.04C55.09 12.15 56.02 13.02 57.10 13.02C57.45 13.02 57.84 12.92 58.03 12.79L58.03 11.97L57.23 11.97C56.67 11.97 56.18 11.55 56.18 10.90L56.18 6.93ZM65.24 11.76L65.24 2.38L64.12 2.38L64.12 12.88L69.14 12.88L69.14 11.76ZM71.26 4.57C71.66 4.57 72.01 4.23 72.01 3.83C72.01 3.39 71.66 3.08 71.26 3.08C70.84 3.08 70.49 3.39 70.49 3.83C70.49 4.23 70.84 4.57 71.26 4.57ZM70.72 12.88L71.80 12.88L71.80 5.88L70.72 5.88ZM77.26 5.74C76.62 5.74 76.02 6.00 75.57 6.44L75.57 5.88L74.48 5.88L74.48 12.88L75.57 12.88L75.57 8.42C75.57 7.53 76.28 6.83 77.18 6.83C78.07 6.83 78.77 7.53 78.77 8.42L78.77 12.88L79.85 12.88L79.85 8.42C79.85 6.93 78.61 5.74 77.26 5.74ZM84.72 13.02C86.28 13.02 87.34 11.99 87.34 10.36L87.34 5.88L86.28 5.88L86.28 10.24C86.28 11.29 85.63 11.94 84.72 11.94C83.83 11.94 83.16 11.29 83.16 10.24L83.16 5.88L82.09 5.88L82.09 10.36C82.09 11.99 83.14 13.02 84.72 13.02ZM95.67 5.88L94.38 5.88L92.10 8.59L89.85 5.88L88.53 5.88L91.46 9.38L88.53 12.88L89.86 12.88L92.12 10.17L94.38 12.88L95.67 12.88L92.77 9.38Z"></path></g><!----><g data-v-423bf9ae="" id="eac7b403-b619-407a-86b4-18a276050574" transform="matrix(1.0120407104492188,0,0,1.0120407104492188,-0.5553838404055611,-4.143363691205742)" stroke="none" fill="#584437"><path d="M11.8 16.5s-2.5-.4-9-1.7c-.8-.2-1.6.5-1.6 1.3 0 1.9-.9 3.3 2.1 8-.1 0 3-5.8 8.5-7.6zM46.2 23.6c.7 1.5 1.5 2.9 2.5 4.2 0 0 .4-3.2.9-5.3.3-1.4.9-4.4 1.3-6.3.2-.9-.6-1.7-1.4-1.6-2.2.2-6.7-.5-9.4 2.3-.1 0 3.9 2 6.1 6.7z"></path><path d="M95 30.5C90.4 17.6 75.9 13.2 64.7 7.2c-11.2-5.9-37.1-1.9-45.9 7.1 0 0 11-2.1 19.2 1.1 0 0 4.4-3.8 11.9-3 1.2.1 2.7 1 2.7 2.3.1 4-1.1 5.8-1.6 10.2-.3 2.5-1 5.8-1 5.8S61.4 54.5 36.6 67c0 0-1.2.7-3.2 1.5-13.2 4.5-19.8-2-19.8-2-.9-.2-3.1-1.6-3.1-1.6s1.2 13.5 2.4 17.7c1.2 4.2.4 5.1-1.5 6-2 .9-5 2.7-4.7 3.5.3.8 8.1 0 8.1 0s1.6-2.5 6.8-3.8c0 0 8-6.4 8.4-14.1 0 0 2.8 10.7-6.7 16 0 0-7.9 1.9-7.2 5l8.5-.8s10.2 1.7 14.4-2.3c4-4.1 11.5-10.2 13.1-13.9 0 0 12.5.8 20-1.1l7.6-1.9s-3.6 3.2-7.8 4.1c0 0 1.6 6.2 3.3 8.4 1.8 2.2-3.3 4.9-5 5.2-1.7.3-2.2 2.6-2.2 2.6s5.1-.1 6.2-.2c1.1 0 11.6-.7 11.6-.7s5.1 1.7 5.8-6.3 4.2-13.9 6.2-23.9c2-9.7 1.7-21-2.8-33.9z"></path><path d="M14.7 64s-.1 0 0 0c0 0 3.5 2.8 8.1 3.4s9.1-1.7 9.1-1.7h-.1c3.4-.8 6.6-2.2 9.3-4.3 16.6-13 8.1-30.9 1.8-39.4-6.4-8.6-23.9-6-28.1-4.9-1.3.3-2.7 1.2-4 2.2-4.6 3.7-7.4 9.1-8.2 15-.5 3.6-1.7 6.3-1.2 12.6.6 8 6.1 14 13.3 17.1zm16.8-21.4c1.1 0 2 .9 2 2s-.9 2-2 2-2-.9-2-2 .9-2 2-2zM15.4 54.5c.8-1.9 2.1-4.7 4.7-4.7 3.1 0 4.1 2.6 5.1 4.4 1 1.9 0 4-1.5 4.4-.7.2-1.6.8-2.2 1.2-.7.5-1.7.6-2.4 0-.7-.5-1.4-1.3-2.3-1.7h-.1c-1.3-.6-1.9-2.3-1.3-3.6zm-4.6-11.8c1.1 0 1.9.9 1.9 1.9 0 1.1-.9 1.9-1.9 1.9s-1.9-.9-1.9-1.9c0-1.1.8-1.9 1.9-1.9z"></path></g><!----></svg>