<?xml version="1.0" encoding="UTF-8" standalone="no"?>
<svg
   xmlns:dc="http://purl.org/dc/elements/1.1/"
   xmlns:cc="http://creativecommons.org/ns#"
   xmlns:rdf="http://www.w3.org/1999/02/22-rdf-syntax-ns#"
   xmlns:svg="http://www.w3.org/2000/svg"
   xmlns="http://www.w3.org/2000/svg"
   xmlns:sodipodi="http://sodipodi.sourceforge.net/DTD/sodipodi-0.dtd"
   xmlns:inkscape="http://www.inkscape.org/namespaces/inkscape"
   inkscape:version="1.0beta2 (2b71d25, 2019-12-03)"
   height="34.620296"
   width="220"
   sodipodi:docname="display.svg"
   id="svg28"
   version="1.1"
   class="iconLeft"
   viewBox="0 0 220 34.620296"
   data-v-fde0c5aa="">
  <metadata
     id="metadata32">
    <rdf:RDF>
      <cc:Work
         rdf:about="">
        <dc:format>image/svg+xml</dc:format>
        <dc:type
           rdf:resource="http://purl.org/dc/dcmitype/StillImage" />
      </cc:Work>
    </rdf:RDF>
  </metadata>
  <sodipodi:namedview
     inkscape:current-layer="svg28"
     inkscape:window-maximized="1"
     inkscape:window-y="25"
     inkscape:window-x="0"
     inkscape:cy="17.310146"
     inkscape:cx="108.66071"
     inkscape:zoom="2.24"
     showgrid="false"
     id="namedview30"
     inkscape:window-height="1147"
     inkscape:window-width="1920"
     inkscape:pageshadow="2"
     inkscape:pageopacity="0"
     guidetolerance="10"
     gridtolerance="10"
     objecttolerance="10"
     borderopacity="1"
     inkscape:document-rotation="0"
     bordercolor="#666666"
     pagecolor="#ffffff" />
  <!---->
  <defs
     id="defs10"
     data-v-fde0c5aa="">
    <!---->
  </defs>
  <defs
     id="defs14"
     data-v-fde0c5aa="">
    <!---->
  </defs>
  <g
     transform="matrix(1.7726724,0,0,1.7726724,50.408434,5.7700463)"
     fill="#000000"
     id="9c48d2a6-a006-4bd8-a33a-4a6149803218"
     data-v-fde0c5aa="">
    <path
       inkscape:connector-curvature="0"
       id="path16"
       d="M 13.11,2.38 10.41,11.01 7.86,2.38 H 6.28 L 3.76,10.99 1.09,2.38 h -1.2 l 3.3,10.5 h 1.19 l 2.69,-9.31 2.75,9.31 h 1.17 l 3.27,-10.5 z m 5.48,10.64 c 2.01,0 3.64,-1.63 3.64,-3.64 0,-2.01 -1.63,-3.64 -3.64,-3.64 -2.02,0 -3.64,1.63 -3.64,3.64 0,2.01 1.62,3.64 3.64,3.64 z m 0,-1.08 c -1.42,0 -2.56,-1.14 -2.56,-2.56 0,-1.42 1.14,-2.55 2.56,-2.55 1.39,0 2.55,1.13 2.55,2.55 0,1.42 -1.16,2.56 -2.55,2.56 z m 12.4,-6.2 c -0.84,0 -1.57,0.4 -2.04,1.05 C 28.47,6.14 27.74,5.74 27,5.74 c -0.63,0 -1.2,0.31 -1.62,0.79 V 5.88 h -1.09 v 7 h 1.09 V 8.4 c 0,-0.87 0.66,-1.57 1.52,-1.57 0.82,0 1.5,0.7 1.5,1.57 v 4.48 h 1.09 V 8.4 c 0,-0.87 0.68,-1.57 1.5,-1.57 0.84,0 1.53,0.7 1.53,1.57 v 4.48 H 33.6 V 8.4 c 0,-1.47 -1.15,-2.66 -2.61,-2.66 z m 8.7,0 c -1,0 -1.89,0.4 -2.55,1.05 V 0 h -1.09 v 12.88 h 1.09 v -0.91 c 0.66,0.65 1.55,1.05 2.55,1.05 2.01,0 3.64,-1.63 3.64,-3.64 0,-2.01 -1.63,-3.64 -3.64,-3.64 z m 0,6.2 c -1.42,0 -2.55,-1.14 -2.55,-2.56 0,-1.42 1.13,-2.55 2.55,-2.55 1.42,0 2.56,1.13 2.56,2.55 0,1.42 -1.14,2.56 -2.56,2.56 z m 13.21,0.03 c -0.38,0 -0.71,-0.26 -0.71,-0.91 V 5.88 H 51.1 V 6.79 C 50.45,6.14 49.54,5.74 48.55,5.74 c -2.02,0 -3.64,1.63 -3.64,3.64 0,2.01 1.62,3.64 3.64,3.64 1.05,0 1.99,-0.49 2.66,-1.21 0.22,0.72 0.78,1.21 1.61,1.21 0.19,0 0.38,-0.05 0.52,-0.14 v -0.91 z m -4.35,-0.03 c -1.42,0 -2.56,-1.14 -2.56,-2.56 0,-1.42 1.14,-2.55 2.56,-2.55 1.4,0 2.55,1.13 2.55,2.55 0,1.42 -1.15,2.56 -2.55,2.56 z m 9.5,-5.01 V 5.88 H 56.18 V 2.83 h -1.09 v 3.05 h -1.17 v 1.05 h 1.17 v 4.11 c 0,1.11 0.93,1.98 2.01,1.98 0.35,0 0.74,-0.1 0.93,-0.23 v -0.82 h -0.8 c -0.56,0 -1.05,-0.42 -1.05,-1.07 V 6.93 Z m 7.19,4.83 V 2.38 h -1.12 v 10.5 h 5.02 v -1.12 z m 6.02,-7.19 c 0.4,0 0.75,-0.34 0.75,-0.74 0,-0.44 -0.35,-0.75 -0.75,-0.75 -0.42,0 -0.77,0.31 -0.77,0.75 0,0.4 0.35,0.74 0.77,0.74 z m -0.54,8.31 h 1.08 v -7 h -1.08 z m 6.54,-7.14 c -0.64,0 -1.24,0.26 -1.69,0.7 V 5.88 h -1.09 v 7 h 1.09 V 8.42 c 0,-0.89 0.71,-1.59 1.61,-1.59 0.89,0 1.59,0.7 1.59,1.59 v 4.46 h 1.08 V 8.42 c 0,-1.49 -1.24,-2.68 -2.59,-2.68 z m 7.46,7.28 c 1.56,0 2.62,-1.03 2.62,-2.66 V 5.88 h -1.06 v 4.36 c 0,1.05 -0.65,1.7 -1.56,1.7 -0.89,0 -1.56,-0.65 -1.56,-1.7 V 5.88 h -1.07 v 4.48 c 0,1.63 1.05,2.66 2.63,2.66 z M 95.67,5.88 H 94.38 L 92.1,8.59 89.85,5.88 h -1.32 l 2.93,3.5 -2.93,3.5 h 1.33 l 2.26,-2.71 2.26,2.71 h 1.29 l -2.9,-3.5 z" />
  </g>
  <defs
     id="defs19"
     data-v-fde0c5aa="">
    <!---->
  </defs>
  <g
     transform="matrix(0.38009333,0,0,0.38009333,-0.40800693,-1.6786137)"
     fill="#584437"
     stroke="none"
     id="384bfe40-5430-4467-a789-021a9507d2d8"
     data-v-fde0c5aa="">
    <path
       inkscape:connector-curvature="0"
       id="path21"
       d="m 11.8,16.5 c 0,0 -2.5,-0.4 -9,-1.7 -0.8,-0.2 -1.6,0.5 -1.6,1.3 0,1.9 -0.9,3.3 2.1,8 -0.1,0 3,-5.8 8.5,-7.6 z m 34.4,7.1 c 0.7,1.5 1.5,2.9 2.5,4.2 0,0 0.4,-3.2 0.9,-5.3 0.3,-1.4 0.9,-4.4 1.3,-6.3 0.2,-0.9 -0.6,-1.7 -1.4,-1.6 -2.2,0.2 -6.7,-0.5 -9.4,2.3 -0.1,0 3.9,2 6.1,6.7 z" />
    <path
       inkscape:connector-curvature="0"
       id="path23"
       d="M 95,30.5 C 90.4,17.6 75.9,13.2 64.7,7.2 53.5,1.3 27.6,5.3 18.8,14.3 c 0,0 11,-2.1 19.2,1.1 0,0 4.4,-3.8 11.9,-3 1.2,0.1 2.7,1 2.7,2.3 0.1,4 -1.1,5.8 -1.6,10.2 -0.3,2.5 -1,5.8 -1,5.8 0,0 11.4,23.8 -13.4,36.3 0,0 -1.2,0.7 -3.2,1.5 -13.2,4.5 -19.8,-2 -19.8,-2 -0.9,-0.2 -3.1,-1.6 -3.1,-1.6 0,0 1.2,13.5 2.4,17.7 1.2,4.2 0.4,5.1 -1.5,6 -2,0.9 -5,2.7 -4.7,3.5 0.3,0.8 8.1,0 8.1,0 0,0 1.6,-2.5 6.8,-3.8 0,0 8,-6.4 8.4,-14.1 0,0 2.8,10.7 -6.7,16 0,0 -7.9,1.9 -7.2,5 l 8.5,-0.8 c 0,0 10.2,1.7 14.4,-2.3 4,-4.1 11.5,-10.2 13.1,-13.9 0,0 12.5,0.8 20,-1.1 l 7.6,-1.9 c 0,0 -3.6,3.2 -7.8,4.1 0,0 1.6,6.2 3.3,8.4 1.8,2.2 -3.3,4.9 -5,5.2 -1.7,0.3 -2.2,2.6 -2.2,2.6 0,0 5.1,-0.1 6.2,-0.2 1.1,0 11.6,-0.7 11.6,-0.7 0,0 5.1,1.7 5.8,-6.3 0.7,-8 4.2,-13.9 6.2,-23.9 2,-9.7 1.7,-21 -2.8,-33.9 z" />
    <path
       inkscape:connector-curvature="0"
       id="path25"
       d="m 14.7,64 c 0,0 -0.1,0 0,0 0,0 3.5,2.8 8.1,3.4 4.6,0.6 9.1,-1.7 9.1,-1.7 h -0.1 c 3.4,-0.8 6.6,-2.2 9.3,-4.3 C 57.7,48.4 49.2,30.5 42.9,22 36.5,13.4 19,16 14.8,17.1 c -1.3,0.3 -2.7,1.2 -4,2.2 -4.6,3.7 -7.4,9.1 -8.2,15 -0.5,3.6 -1.7,6.3 -1.2,12.6 0.6,8 6.1,14 13.3,17.1 z M 31.5,42.6 c 1.1,0 2,0.9 2,2 0,1.1 -0.9,2 -2,2 -1.1,0 -2,-0.9 -2,-2 0,-1.1 0.9,-2 2,-2 z M 15.4,54.5 c 0.8,-1.9 2.1,-4.7 4.7,-4.7 3.1,0 4.1,2.6 5.1,4.4 1,1.9 0,4 -1.5,4.4 -0.7,0.2 -1.6,0.8 -2.2,1.2 -0.7,0.5 -1.7,0.6 -2.4,0 -0.7,-0.5 -1.4,-1.3 -2.3,-1.7 H 16.7 C 15.4,57.5 14.8,55.8 15.4,54.5 Z M 10.8,42.7 c 1.1,0 1.9,0.9 1.9,1.9 0,1.1 -0.9,1.9 -1.9,1.9 -1,0 -1.9,-0.9 -1.9,-1.9 0,-1.1 0.8,-1.9 1.9,-1.9 z" />
  </g>
  <!---->
</svg>
