<svg data-v-fde0c5aa="" xmlns="http://www.w3.org/2000/svg" viewBox="0 0 300 300" class="font"><!----><defs data-v-fde0c5aa=""><!----></defs><rect data-v-fde0c5aa="" fill="transparent" x="0" y="0" width="300px" height="300px" class="logo-background-square"></rect><defs data-v-fde0c5aa=""><linearGradient data-v-fde0c5aa="" gradientTransform="rotate(25)" id="ce36031d-788b-4ba7-aa3f-78f3ad50ea2d" x1="0%" y1="0%" x2="100%" y2="0%"><stop data-v-fde0c5aa="" offset="0%" stop-color="#5F2517" stop-opacity="1"></stop><stop data-v-fde0c5aa="" offset="100%" stop-color="#CAB08D" stop-opacity="1"></stop></linearGradient></defs><g data-v-fde0c5aa="" id="a2e7b449-d61c-4f77-a5f9-e7d4e2520b3d" fill="url(#ce36031d-788b-4ba7-aa3f-78f3ad50ea2d)" transform="matrix(2.3434171968085593,0,0,2.3434171968085593,39.83596077806521,132.857903071254)"><path d="M2.70 12.29L0.07 2.69L1.97 2.69L3.56 8.90L3.56 8.90Q3.61 9.14 3.70 9.63L3.70 9.63L3.70 9.63Q3.79 10.12 3.82 10.29L3.82 10.29L3.89 10.29L3.89 10.29Q3.92 10.12 3.99 9.69L3.99 9.69L3.99 9.69Q4.06 9.25 4.13 8.90L4.13 8.90L5.57 2.69L7.84 2.69L9.28 8.90L9.28 8.90Q9.37 9.30 9.44 9.72L9.44 9.72L9.44 9.72Q9.51 10.14 9.53 10.29L9.53 10.29L9.60 10.29L9.60 10.29Q9.63 10.14 9.72 9.65L9.72 9.65L9.72 9.65Q9.81 9.17 9.88 8.90L9.88 8.90L11.45 2.69L13.15 2.69L10.51 12.29L8.44 12.29L6.89 5.96L6.89 5.96Q6.80 5.63 6.73 5.16L6.73 5.16L6.73 5.16Q6.65 4.69 6.62 4.54L6.62 4.54L6.57 4.54L6.57 4.54Q6.54 4.69 6.47 5.12L6.47 5.12L6.47 5.12Q6.40 5.56 6.31 5.96L6.31 5.96L4.77 12.29L2.70 12.29ZM17.36 12.46L17.36 12.46Q15.54 12.46 14.64 11.52L14.64 11.52L14.64 11.52Q13.73 10.58 13.73 8.61L13.73 8.61L13.73 8.61Q13.73 6.64 14.64 5.70L14.64 5.70L14.64 5.70Q15.54 4.76 17.36 4.76L17.36 4.76L17.36 4.76Q19.18 4.76 20.08 5.70L20.08 5.70L20.08 5.70Q20.99 6.64 20.99 8.61L20.99 8.61L20.99 8.61Q20.99 10.58 20.08 11.52L20.08 11.52L20.08 11.52Q19.18 12.46 17.36 12.46L17.36 12.46ZM17.36 11.09L17.36 11.09Q18.35 11.09 18.80 10.51L18.80 10.51L18.80 10.51Q19.25 9.93 19.25 8.71L19.25 8.71L19.25 8.51L19.25 8.51Q19.25 7.29 18.80 6.71L18.80 6.71L18.80 6.71Q18.35 6.13 17.36 6.13L17.36 6.13L17.36 6.13Q16.35 6.13 15.91 6.71L15.91 6.71L15.91 6.71Q15.47 7.29 15.47 8.51L15.47 8.51L15.47 8.71L15.47 8.71Q15.47 9.93 15.91 10.51L15.91 10.51L15.91 10.51Q16.35 11.09 17.36 11.09L17.36 11.09ZM22.48 12.29L22.48 4.93L23.87 4.93L24.01 5.91L24.11 5.91L24.11 5.91Q24.47 5.38 25.01 5.07L25.01 5.07L25.01 5.07Q25.55 4.76 26.25 4.76L26.25 4.76L26.25 4.76Q27.66 4.76 28.17 5.91L28.17 5.91L28.28 5.91L28.28 5.91Q28.64 5.39 29.22 5.07L29.22 5.07L29.22 5.07Q29.79 4.76 30.49 4.76L30.49 4.76L30.49 4.76Q31.54 4.76 32.14 5.35L32.14 5.35L32.14 5.35Q32.75 5.94 32.75 7.22L32.75 7.22L32.75 12.29L31.07 12.29L31.07 7.56L31.07 7.56Q31.07 6.22 29.90 6.22L29.90 6.22L29.90 6.22Q29.29 6.22 28.88 6.72L28.88 6.72L28.88 6.72Q28.46 7.22 28.46 8.01L28.46 8.01L28.46 12.29L26.78 12.29L26.78 7.56L26.78 7.56Q26.78 6.22 25.62 6.22L25.62 6.22L25.62 6.22Q25.00 6.22 24.58 6.72L24.58 6.72L24.58 6.72Q24.16 7.22 24.16 8.01L24.16 8.01L24.16 12.29L22.48 12.29ZM38.53 12.46L38.53 12.46Q37.81 12.46 37.23 12.17L37.23 12.17L37.23 12.17Q36.64 11.87 36.27 11.31L36.27 11.31L36.19 11.31L36.05 12.29L34.66 12.29L34.66 2.17L36.34 2.17L36.34 5.78L36.43 5.78L36.43 5.78Q37.10 4.76 38.64 4.76L38.64 4.76L38.64 4.76Q39.93 4.76 40.70 5.73L40.70 5.73L40.70 5.73Q41.47 6.69 41.47 8.60L41.47 8.60L41.47 8.60Q41.47 10.56 40.70 11.51L40.70 11.51L40.70 11.51Q39.93 12.46 38.53 12.46L38.53 12.46ZM38.02 11.02L38.02 11.02Q38.95 11.02 39.34 10.46L39.34 10.46L39.34 10.46Q39.73 9.91 39.73 8.71L39.73 8.71L39.73 8.53L39.73 8.53Q39.73 7.31 39.34 6.75L39.34 6.75L39.34 6.75Q38.95 6.20 38.02 6.20L38.02 6.20L38.02 6.20Q36.34 6.20 36.34 8.54L36.34 8.54L36.34 8.71L36.34 8.71Q36.34 9.86 36.75 10.44L36.75 10.44L36.75 10.44Q37.16 11.02 38.02 11.02L38.02 11.02ZM44.74 12.46L44.74 12.46Q43.85 12.46 43.13 12.02L43.13 12.02L43.13 12.02Q42.41 11.58 42.41 10.39L42.41 10.39L42.41 10.39Q42.41 8.97 43.61 8.40L43.61 8.40L43.61 8.40Q44.81 7.83 47.03 7.83L47.03 7.83L47.03 7.21L47.03 7.21Q47.03 6.68 46.75 6.38L46.75 6.38L46.75 6.38Q46.48 6.09 45.77 6.09L45.77 6.09L45.77 6.09Q45.02 6.09 44.72 6.33L44.72 6.33L44.72 6.33Q44.41 6.57 44.41 6.92L44.41 6.92L44.41 7.11L42.78 7.11L42.78 7.11Q42.77 7.03 42.77 6.80L42.77 6.80L42.77 6.80Q42.77 5.85 43.59 5.31L43.59 5.31L43.59 5.31Q44.41 4.76 45.77 4.76L45.77 4.76L45.77 4.76Q47.24 4.76 47.97 5.36L47.97 5.36L47.97 5.36Q48.71 5.96 48.71 7.08L48.71 7.08L48.71 10.60L48.71 10.60Q48.71 10.85 48.85 10.97L48.85 10.97L48.85 10.97Q48.99 11.09 49.20 11.09L49.20 11.09L49.64 11.09L49.64 12.24L49.64 12.24Q49.20 12.45 48.59 12.45L48.59 12.45L48.59 12.45Q48.05 12.45 47.68 12.18L47.68 12.18L47.68 12.18Q47.32 11.91 47.19 11.45L47.19 11.45L47.10 11.45L47.10 11.45Q46.27 12.46 44.74 12.46L44.74 12.46ZM45.25 11.12L45.25 11.12Q46.07 11.12 46.55 10.64L46.55 10.64L46.55 10.64Q47.03 10.16 47.03 9.35L47.03 9.35L47.03 9.02L47.03 9.02Q45.67 9.02 44.90 9.28L44.90 9.28L44.90 9.28Q44.13 9.53 44.13 10.22L44.13 10.22L44.13 10.22Q44.13 11.12 45.25 11.12L45.25 11.12ZM52.60 12.46L52.60 12.46Q51.66 12.46 51.25 11.94L51.25 11.94L51.25 11.94Q50.83 11.41 50.83 10.63L50.83 10.63L50.83 6.30L49.94 6.30L49.94 4.93L50.86 4.93L51.17 2.87L52.51 2.87L52.51 4.93L53.77 4.93L53.77 6.30L52.51 6.30L52.51 10.46L52.51 10.46Q52.51 11.09 53.12 11.09L53.12 11.09L53.77 11.09L53.77 12.24L53.77 12.24Q53.55 12.32 53.21 12.39L53.21 12.39L53.21 12.39Q52.88 12.46 52.60 12.46L52.60 12.46ZM59.04 12.29L59.04 2.69L60.83 2.69L60.83 10.74L65.93 10.74L65.93 12.29L59.04 12.29ZM67.31 3.78L67.31 2.17L68.99 2.17L68.99 3.78L67.31 3.78ZM67.31 12.29L67.31 4.93L68.99 4.93L68.99 12.29L67.31 12.29ZM70.94 12.29L70.94 4.93L72.32 4.93L72.46 5.91L72.56 5.91L72.56 5.91Q72.97 5.36 73.56 5.06L73.56 5.06L73.56 5.06Q74.16 4.76 74.93 4.76L74.93 4.76L74.93 4.76Q76.05 4.76 76.68 5.37L76.68 5.37L76.68 5.37Q77.31 5.98 77.31 7.32L77.31 7.32L77.31 12.29L75.63 12.29L75.63 7.62L75.63 7.62Q75.63 6.86 75.28 6.54L75.28 6.54L75.28 6.54Q74.94 6.22 74.27 6.22L74.27 6.22L74.27 6.22Q73.57 6.22 73.09 6.72L73.09 6.72L73.09 6.72Q72.62 7.22 72.62 8.01L72.62 8.01L72.62 12.29L70.94 12.29ZM81.56 12.46L81.56 12.46Q79.18 12.46 79.18 9.90L79.18 9.90L79.18 4.93L80.86 4.93L80.86 9.60L80.86 9.60Q80.86 10.36 81.21 10.68L81.21 10.68L81.21 10.68Q81.55 11.00 82.22 11.00L82.22 11.00L82.22 11.00Q82.92 11.00 83.40 10.50L83.40 10.50L83.40 10.50Q83.87 10.00 83.87 9.21L83.87 9.21L83.87 4.93L85.55 4.93L85.55 12.29L84.17 12.29L84.03 11.31L83.93 11.31L83.93 11.31Q83.52 11.86 82.93 12.16L82.93 12.16L82.93 12.16Q82.33 12.46 81.56 12.46L81.56 12.46ZM86.62 12.29L89.26 8.50L86.80 4.93L88.83 4.93L90.31 7.24L90.40 7.24L91.90 4.93L93.81 4.93L91.32 8.46L93.95 12.29L91.94 12.29L90.29 9.72L90.20 9.72L88.52 12.29L86.62 12.29Z"></path></g><!----><!----></svg>